<svg width="24" height="24" viewBox="0 0 24 24" fill="none" xmlns="http://www.w3.org/2000/svg">
<path d="M21 12C21 7.02947 16.9705 3 12 3C7.02947 3 3 7.02947 3 12C3 16.4921 6.29119 20.2155 10.5938 20.8907L10.5938 14.6016H8.30859L8.30859 12H10.5938L10.5938 10.0172C10.5938 7.76156 11.9374 6.51562 13.9932 6.51562C14.9779 6.51562 16.0078 6.69141 16.0078 6.69141L16.0078 8.90625H14.873C13.7549 8.90625 13.4063 9.60002 13.4063 10.3118L13.4063 12L15.9023 12L15.5033 14.6016H13.4063L13.4063 20.8907C17.7088 20.2155 21 16.4922 21 12Z" fill="#1877F2"/>
<path d="M15.5033 14.6016L15.9023 12L13.4063 12L13.4063 10.3118C13.4063 9.59995 13.7549 8.90625 14.873 8.90625H16.0078L16.0078 6.69141C16.0078 6.69141 14.9779 6.51563 13.9931 6.51563C11.9374 6.51563 10.5938 7.76156 10.5938 10.0172L10.5938 12H8.30859L8.30859 14.6016H10.5938L10.5938 20.8907C11.059 20.9636 11.5291 21.0001 12 21C12.4709 21.0001 12.941 20.9636 13.4063 20.8907L13.4063 14.6016H15.5033Z" fill="white"/>
</svg>
